<?xml version="1.0" encoding="UTF-8" standalone="no"?>
<!DOCTYPE svg PUBLIC "-//W3C//DTD SVG 1.1//EN"
 "http://www.w3.org/Graphics/SVG/1.1/DTD/svg11.dtd">
<!-- Generated by graphviz version 2.40.1 (20161225.0304)
 -->
<!-- Title: %3 Pages: 1 -->
<svg width="2964pt" height="657pt"
 viewBox="0.00 0.00 2964.17 657.00" xmlns="http://www.w3.org/2000/svg" xmlns:xlink="http://www.w3.org/1999/xlink">
<g id="graph0" class="graph" transform="scale(1 1) rotate(0) translate(4 653)">
<title>%3</title>
<polygon fill="#ffffff" stroke="transparent" points="-4,4 -4,-653 2960.1728,-653 2960.1728,4 -4,4"/>
<g id="clust11" class="cluster">
<title>cluster_10</title>
<polygon fill="none" stroke="#000000" points="2640.0293,-510 2640.0293,-641 2789.0413,-641 2789.0413,-510 2640.0293,-510"/>
<text text-anchor="middle" x="2714.5353" y="-624.4" font-family="Times,serif" font-size="14.00" fill="#000000">go.uber.org/fx</text>
</g>
<g id="clust10" class="cluster">
<title>cluster_9</title>
<polygon fill="none" stroke="#000000" points="2633.807,-371 2633.807,-502 2795.2636,-502 2795.2636,-371 2633.807,-371"/>
<text text-anchor="middle" x="2714.5353" y="-485.4" font-family="Times,serif" font-size="14.00" fill="#000000">go.uber.org/fx</text>
</g>
<g id="clust9" class="cluster">
<title>cluster_8</title>
<polygon fill="none" stroke="#000000" points="2648.5844,-232 2648.5844,-363 2780.4862,-363 2780.4862,-232 2648.5844,-232"/>
<text text-anchor="middle" x="2714.5353" y="-346.4" font-family="Times,serif" font-size="14.00" fill="#000000">go.uber.org/fx</text>
</g>
<g id="clust8" class="cluster">
<title>cluster_7</title>
<polygon fill="none" stroke="#000000" points="1969.1812,-93 1969.1812,-224 2452.807,-224 2452.807,-93 1969.1812,-93"/>
<text text-anchor="middle" x="2210.9941" y="-207.4" font-family="Times,serif" font-size="14.00" fill="#000000">github.com/MikhailGulkin/simpleGoOrderApp/customer/internal/presentation/grpc</text>
</g>
<g id="clust7" class="cluster">
<title>cluster_6</title>
<polygon fill="none" stroke="#000000" points="2471.8979,-93 2471.8979,-224 2956.1728,-224 2956.1728,-93 2471.8979,-93"/>
<text text-anchor="middle" x="2714.0353" y="-207.4" font-family="Times,serif" font-size="14.00" fill="#000000">github.com/MikhailGulkin/simpleGoOrderApp/customer/internal/presentation/grpc</text>
</g>
<g id="clust6" class="cluster">
<title>cluster_5</title>
<polygon fill="none" stroke="#000000" points="1500.2833,-93 1500.2833,-224 1949.1812,-224 1949.1812,-93 1500.2833,-93"/>
<text text-anchor="middle" x="1724.7322" y="-207.4" font-family="Times,serif" font-size="14.00" fill="#000000">github.com/MikhailGulkin/simpleGoOrderApp/customer/internal/application</text>
</g>
<g id="clust5" class="cluster">
<title>cluster_4</title>
<polygon fill="none" stroke="#000000" points="1000.1256,-8 1000.1256,-139 1480.2833,-139 1480.2833,-8 1000.1256,-8"/>
<text text-anchor="middle" x="1240.2045" y="-122.4" font-family="Times,serif" font-size="14.00" fill="#000000">github.com/MikhailGulkin/simpleGoOrderApp/customer/internal/infrastructure/db</text>
</g>
<g id="clust4" class="cluster">
<title>cluster_3</title>
<polygon fill="none" stroke="#000000" points="1000.4479,-147 1000.4479,-278 1480.961,-278 1480.961,-147 1000.4479,-147"/>
<text text-anchor="middle" x="1240.7045" y="-261.4" font-family="Times,serif" font-size="14.00" fill="#000000">github.com/MikhailGulkin/simpleGoOrderApp/customer/internal/infrastructure/db</text>
</g>
<g id="clust3" class="cluster">
<title>cluster_2</title>
<polygon fill="none" stroke="#000000" points="499.8636,-147 499.8636,-278 980.1256,-278 980.1256,-147 499.8636,-147"/>
<text text-anchor="middle" x="739.9946" y="-261.4" font-family="Times,serif" font-size="14.00" fill="#000000">github.com/MikhailGulkin/simpleGoOrderApp/customer/internal/infrastructure/db</text>
</g>
<g id="clust2" class="cluster">
<title>cluster_1</title>
<polygon fill="none" stroke="#000000" points="0,-147 0,-278 479.8636,-278 479.8636,-147 0,-147"/>
<text text-anchor="middle" x="239.9318" y="-261.4" font-family="Times,serif" font-size="14.00" fill="#000000">github.com/MikhailGulkin/simpleGoOrderApp/customer/internal/infrastructure/db</text>
</g>
<g id="clust1" class="cluster">
<title>cluster_0</title>
<polygon fill="none" stroke="#000000" points="1000.3877,-286 1000.3877,-417 1480.0212,-417 1480.0212,-286 1000.3877,-286"/>
<text text-anchor="middle" x="1240.2045" y="-400.4" font-family="Times,serif" font-size="14.00" fill="#000000">github.com/MikhailGulkin/simpleGoOrderApp/customer/internal/infrastructure/db</text>
</g>
<!-- constructor_0 -->
<g id="node1" class="node">
<title>constructor_0</title>
<text text-anchor="middle" x="1240.7045" y="-361.8" font-family="Times,serif" font-size="14.00" fill="#000000">NewOutbox</text>
</g>
<!-- db.Connection -->
<g id="node3" class="node">
<title>db.Connection</title>
<ellipse fill="none" stroke="#000000" cx="740.4946" cy="-227" rx="67.7623" ry="18"/>
<text text-anchor="middle" x="740.4946" y="-222.8" font-family="Times,serif" font-size="14.00" fill="#000000">db.Connection</text>
</g>
<!-- constructor_0&#45;&gt;db.Connection -->
<g id="edge1" class="edge">
<title>constructor_0&#45;&gt;db.Connection</title>
<path fill="none" stroke="#000000" d="M1000.3897,-339.07C1000.3016,-339.0467 1000.2136,-339.0234 1000.1256,-339 918.3333,-317.2842 828.9652,-274.0272 779.3141,-248.0879"/>
<polygon fill="#000000" stroke="#000000" points="780.7006,-244.8624 770.2218,-243.2988 777.4384,-251.0558 780.7006,-244.8624"/>
</g>
<!-- persistence.Outbox -->
<g id="node2" class="node">
<title>persistence.Outbox</title>
<ellipse fill="none" stroke="#000000" cx="1240.7045" cy="-312" rx="85.1339" ry="18"/>
<text text-anchor="middle" x="1240.7045" y="-307.8" font-family="Times,serif" font-size="14.00" fill="#000000">persistence.Outbox</text>
</g>
<!-- constructor_1 -->
<g id="node4" class="node">
<title>constructor_1</title>
<text text-anchor="middle" x="239.9318" y="-222.8" font-family="Times,serif" font-size="14.00" fill="#000000">NewConfig</text>
</g>
<!-- db.Config -->
<g id="node5" class="node">
<title>db.Config</title>
<ellipse fill="none" stroke="#000000" cx="239.9318" cy="-173" rx="49.8637" ry="18"/>
<text text-anchor="middle" x="239.9318" y="-168.8" font-family="Times,serif" font-size="14.00" fill="#000000">db.Config</text>
</g>
<!-- constructor_2 -->
<g id="node6" class="node">
<title>constructor_2</title>
<text text-anchor="middle" x="740.4946" y="-168.8" font-family="Times,serif" font-size="14.00" fill="#000000">NewConnection</text>
</g>
<!-- constructor_2&#45;&gt;db.Config -->
<g id="edge2" class="edge">
<title>constructor_2&#45;&gt;db.Config</title>
<path fill="none" stroke="#000000" d="M499.8652,-173C425.7765,-173 350.5582,-173 300.2314,-173"/>
<polygon fill="#000000" stroke="#000000" points="300.1328,-169.5001 290.1328,-173 300.1328,-176.5001 300.1328,-169.5001"/>
</g>
<!-- constructor_3 -->
<g id="node7" class="node">
<title>constructor_3</title>
<text text-anchor="middle" x="1240.7045" y="-222.8" font-family="Times,serif" font-size="14.00" fill="#000000">NewEventStore</text>
</g>
<!-- constructor_3&#45;&gt;db.Connection -->
<g id="edge3" class="edge">
<title>constructor_3&#45;&gt;db.Connection</title>
<path fill="none" stroke="#000000" d="M1000.4527,-227C934.4901,-227 867.6122,-227 818.2101,-227"/>
<polygon fill="#000000" stroke="#000000" points="818.1909,-223.5001 808.1908,-227 818.1908,-230.5001 818.1909,-223.5001"/>
</g>
<!-- persistence.EventStore -->
<g id="node8" class="node">
<title>persistence.EventStore</title>
<ellipse fill="none" stroke="#000000" cx="1240.7045" cy="-173" rx="99.0137" ry="18"/>
<text text-anchor="middle" x="1240.7045" y="-168.8" font-family="Times,serif" font-size="14.00" fill="#000000">persistence.EventStore</text>
</g>
<!-- constructor_4 -->
<g id="node9" class="node">
<title>constructor_4</title>
<text text-anchor="middle" x="1240.7045" y="-83.8" font-family="Times,serif" font-size="14.00" fill="#000000">NewUoWManager</text>
</g>
<!-- constructor_4&#45;&gt;db.Connection -->
<g id="edge4" class="edge">
<title>constructor_4&#45;&gt;db.Connection</title>
<path fill="none" stroke="#000000" d="M1004.7912,-138.9982C1003.2101,-140.3008 1001.6544,-141.6345 1000.1256,-143 980.1025,-160.8847 1001.123,-183.2698 980.1256,-200 932.2387,-238.155 860.8576,-241.527 808.4553,-237.4055"/>
<polygon fill="#000000" stroke="#000000" points="808.5131,-233.8968 798.2404,-236.4894 807.8878,-240.8688 808.5131,-233.8968"/>
</g>
<!-- persistence.UoWManager -->
<g id="node10" class="node">
<title>persistence.UoWManager</title>
<ellipse fill="none" stroke="#000000" cx="1240.7045" cy="-34" rx="111.6577" ry="18"/>
<text text-anchor="middle" x="1240.7045" y="-29.8" font-family="Times,serif" font-size="14.00" fill="#000000">persistence.UoWManager</text>
</g>
<!-- constructor_5 -->
<g id="node11" class="node">
<title>constructor_5</title>
<text text-anchor="middle" x="1724.7322" y="-168.8" font-family="Times,serif" font-size="14.00" fill="#000000">NewCustomerServices</text>
</g>
<!-- constructor_5&#45;&gt;persistence.Outbox -->
<g id="edge6" class="edge">
<title>constructor_5&#45;&gt;persistence.Outbox</title>
<path fill="none" stroke="#000000" d="M1628.4319,-223.9985C1584.5678,-245.1299 1531.2947,-267.9424 1480.961,-282 1433.3475,-295.2979 1378.776,-302.7091 1333.688,-306.8359"/>
<polygon fill="#000000" stroke="#000000" points="1333.2843,-303.3577 1323.6278,-307.717 1333.8951,-310.331 1333.2843,-303.3577"/>
</g>
<!-- constructor_5&#45;&gt;persistence.EventStore -->
<g id="edge5" class="edge">
<title>constructor_5&#45;&gt;persistence.EventStore</title>
<path fill="none" stroke="#000000" d="M1500.2879,-173C1448.2138,-173 1395.0492,-173 1350.5059,-173"/>
<polygon fill="#000000" stroke="#000000" points="1350.2662,-169.5001 1340.2662,-173 1350.2661,-176.5001 1350.2662,-169.5001"/>
</g>
<!-- constructor_5&#45;&gt;persistence.UoWManager -->
<g id="edge7" class="edge">
<title>constructor_5&#45;&gt;persistence.UoWManager</title>
<path fill="none" stroke="#000000" d="M1500.2833,-146C1471.5046,-120.0636 1509.8408,-86.8238 1480.961,-61 1440.7113,-25.0094 1380.2477,-18.3713 1330.0478,-20.6744"/>
<polygon fill="#000000" stroke="#000000" points="1329.6075,-17.1941 1319.8285,-21.2711 1330.0156,-24.1822 1329.6075,-17.1941"/>
</g>
<!-- *application.CustomerServices -->
<g id="node12" class="node">
<title>*application.CustomerServices</title>
<ellipse fill="none" stroke="#000000" cx="1724.7322" cy="-119" rx="131.3979" ry="18"/>
<text text-anchor="middle" x="1724.7322" y="-114.8" font-family="Times,serif" font-size="14.00" fill="#000000">*application.CustomerServices</text>
</g>
<!-- constructor_6 -->
<g id="node13" class="node">
<title>constructor_6</title>
<text text-anchor="middle" x="2714.5353" y="-168.8" font-family="Times,serif" font-size="14.00" fill="#000000">NewGrpcServer</text>
</g>
<!-- pb.CustomerServiceServer -->
<g id="node15" class="node">
<title>pb.CustomerServiceServer</title>
<ellipse fill="none" stroke="#000000" cx="2210.9941" cy="-173" rx="114.6262" ry="18"/>
<text text-anchor="middle" x="2210.9941" y="-168.8" font-family="Times,serif" font-size="14.00" fill="#000000">pb.CustomerServiceServer</text>
</g>
<!-- constructor_6&#45;&gt;pb.CustomerServiceServer -->
<g id="edge8" class="edge">
<title>constructor_6&#45;&gt;pb.CustomerServiceServer</title>
<path fill="none" stroke="#000000" d="M2471.9004,-173C2424.9285,-173 2377.5321,-173 2336.2624,-173"/>
<polygon fill="#000000" stroke="#000000" points="2335.9841,-169.5001 2325.984,-173 2335.984,-176.5001 2335.9841,-169.5001"/>
</g>
<!-- *grpc.Server -->
<g id="node14" class="node">
<title>*grpc.Server</title>
<ellipse fill="none" stroke="#000000" cx="2714.5353" cy="-119" rx="60.7753" ry="18"/>
<text text-anchor="middle" x="2714.5353" y="-114.8" font-family="Times,serif" font-size="14.00" fill="#000000">*grpc.Server</text>
</g>
<!-- constructor_7 -->
<g id="node16" class="node">
<title>constructor_7</title>
<text text-anchor="middle" x="2210.9941" y="-114.8" font-family="Times,serif" font-size="14.00" fill="#000000">NewCustomerGrpcService</text>
</g>
<!-- constructor_7&#45;&gt;*application.CustomerServices -->
<g id="edge9" class="edge">
<title>constructor_7&#45;&gt;*application.CustomerServices</title>
<path fill="none" stroke="#000000" d="M1969.1837,-119C1934.1392,-119 1899.0581,-119 1866.8528,-119"/>
<polygon fill="#000000" stroke="#000000" points="1866.6373,-115.5001 1856.6373,-119 1866.6373,-122.5001 1866.6373,-115.5001"/>
</g>
<!-- constructor_8 -->
<g id="node17" class="node">
<title>constructor_8</title>
<text text-anchor="middle" x="2714.5353" y="-307.8" font-family="Times,serif" font-size="14.00" fill="#000000">New.func1</text>
</g>
<!-- fx.Lifecycle -->
<g id="node18" class="node">
<title>fx.Lifecycle</title>
<ellipse fill="none" stroke="#000000" cx="2714.5353" cy="-258" rx="57.9019" ry="18"/>
<text text-anchor="middle" x="2714.5353" y="-253.8" font-family="Times,serif" font-size="14.00" fill="#000000">fx.Lifecycle</text>
</g>
<!-- constructor_9 -->
<g id="node19" class="node">
<title>constructor_9</title>
<text text-anchor="middle" x="2714.5353" y="-446.8" font-family="Times,serif" font-size="14.00" fill="#000000">(*App).shutdowner&#45;fm</text>
</g>
<!-- fx.Shutdowner -->
<g id="node20" class="node">
<title>fx.Shutdowner</title>
<ellipse fill="none" stroke="#000000" cx="2714.5353" cy="-397" rx="68.3228" ry="18"/>
<text text-anchor="middle" x="2714.5353" y="-392.8" font-family="Times,serif" font-size="14.00" fill="#000000">fx.Shutdowner</text>
</g>
<!-- constructor_10 -->
<g id="node21" class="node">
<title>constructor_10</title>
<text text-anchor="middle" x="2714.5353" y="-585.8" font-family="Times,serif" font-size="14.00" fill="#000000">(*App).dotGraph&#45;fm</text>
</g>
<!-- fx.DotGraph -->
<g id="node22" class="node">
<title>fx.DotGraph</title>
<ellipse fill="none" stroke="#000000" cx="2714.5353" cy="-536" rx="60.2148" ry="18"/>
<text text-anchor="middle" x="2714.5353" y="-531.8" font-family="Times,serif" font-size="14.00" fill="#000000">fx.DotGraph</text>
</g>
</g>
</svg>
