<?xml version="1.0" encoding="UTF-8" standalone="no"?>
<!DOCTYPE svg PUBLIC "-//W3C//DTD SVG 1.1//EN"
 "http://www.w3.org/Graphics/SVG/1.1/DTD/svg11.dtd">
<!-- Generated by graphviz version 2.40.1 (20161225.0304)
 -->
<!-- Title: %3 Pages: 1 -->
<svg width="3007pt" height="892pt"
 viewBox="0.00 0.00 3007.17 892.00" xmlns="http://www.w3.org/2000/svg" xmlns:xlink="http://www.w3.org/1999/xlink">
<g id="graph0" class="graph" transform="scale(1 1) rotate(0) translate(4 888)">
<title>%3</title>
<polygon fill="#ffffff" stroke="transparent" points="-4,4 -4,-888 3003.1728,-888 3003.1728,4 -4,4"/>
<g id="clust17" class="cluster">
<title>cluster_16</title>
<polygon fill="none" stroke="#000000" points="2683.0293,-745 2683.0293,-876 2832.0413,-876 2832.0413,-745 2683.0293,-745"/>
<text text-anchor="middle" x="2757.5353" y="-859.4" font-family="Times,serif" font-size="14.00" fill="#000000">go.uber.org/fx</text>
</g>
<g id="clust16" class="cluster">
<title>cluster_15</title>
<polygon fill="none" stroke="#000000" points="2676.807,-606 2676.807,-737 2838.2636,-737 2838.2636,-606 2676.807,-606"/>
<text text-anchor="middle" x="2757.5353" y="-720.4" font-family="Times,serif" font-size="14.00" fill="#000000">go.uber.org/fx</text>
</g>
<g id="clust15" class="cluster">
<title>cluster_14</title>
<polygon fill="none" stroke="#000000" points="2691.5844,-467 2691.5844,-598 2823.4862,-598 2823.4862,-467 2691.5844,-467"/>
<text text-anchor="middle" x="2757.5353" y="-581.4" font-family="Times,serif" font-size="14.00" fill="#000000">go.uber.org/fx</text>
</g>
<g id="clust14" class="cluster">
<title>cluster_13</title>
<polygon fill="none" stroke="#000000" points="2519.0514,-8 2519.0514,-139 2995.0192,-139 2995.0192,-8 2519.0514,-8"/>
<text text-anchor="middle" x="2757.0353" y="-122.4" font-family="Times,serif" font-size="14.00" fill="#000000">github.com/MikhailGulkin/simpleGoOrderApp/customer/internal/presentation/api</text>
</g>
<g id="clust13" class="cluster">
<title>cluster_12</title>
<polygon fill="none" stroke="#000000" points="2016.691,-50 2016.691,-181 2493.2972,-181 2493.2972,-50 2016.691,-50"/>
<text text-anchor="middle" x="2254.9941" y="-164.4" font-family="Times,serif" font-size="14.00" fill="#000000">github.com/MikhailGulkin/simpleGoOrderApp/customer/internal/presentation/api</text>
</g>
<g id="clust12" class="cluster">
<title>cluster_11</title>
<polygon fill="none" stroke="#000000" points="1518.0724,-14 1518.0724,-145 1994.392,-145 1994.392,-14 1518.0724,-14"/>
<text text-anchor="middle" x="1756.2322" y="-128.4" font-family="Times,serif" font-size="14.00" fill="#000000">github.com/MikhailGulkin/simpleGoOrderApp/customer/internal/presentation/api</text>
</g>
<g id="clust11" class="cluster">
<title>cluster_10</title>
<polygon fill="none" stroke="#000000" points="2017.0179,-189 2017.0179,-320 2492.9703,-320 2492.9703,-189 2017.0179,-189"/>
<text text-anchor="middle" x="2254.9941" y="-303.4" font-family="Times,serif" font-size="14.00" fill="#000000">github.com/MikhailGulkin/simpleGoOrderApp/customer/internal/presentation/api</text>
</g>
<g id="clust10" class="cluster">
<title>cluster_9</title>
<polygon fill="none" stroke="#000000" points="1518.1274,-153 1518.1274,-284 1994.3371,-284 1994.3371,-153 1518.1274,-153"/>
<text text-anchor="middle" x="1756.2322" y="-267.4" font-family="Times,serif" font-size="14.00" fill="#000000">github.com/MikhailGulkin/simpleGoOrderApp/customer/internal/presentation/api</text>
</g>
<g id="clust9" class="cluster">
<title>cluster_8</title>
<polygon fill="none" stroke="#000000" points="2013.1812,-328 2013.1812,-459 2496.807,-459 2496.807,-328 2013.1812,-328"/>
<text text-anchor="middle" x="2254.9941" y="-442.4" font-family="Times,serif" font-size="14.00" fill="#000000">github.com/MikhailGulkin/simpleGoOrderApp/customer/internal/presentation/grpc</text>
</g>
<g id="clust8" class="cluster">
<title>cluster_7</title>
<polygon fill="none" stroke="#000000" points="2514.8979,-328 2514.8979,-459 2999.1728,-459 2999.1728,-328 2514.8979,-328"/>
<text text-anchor="middle" x="2757.0353" y="-442.4" font-family="Times,serif" font-size="14.00" fill="#000000">github.com/MikhailGulkin/simpleGoOrderApp/customer/internal/presentation/grpc</text>
</g>
<g id="clust7" class="cluster">
<title>cluster_6</title>
<polygon fill="none" stroke="#000000" points="1532.2833,-316 1532.2833,-447 1981.1812,-447 1981.1812,-316 1532.2833,-316"/>
<text text-anchor="middle" x="1756.7322" y="-430.4" font-family="Times,serif" font-size="14.00" fill="#000000">github.com/MikhailGulkin/simpleGoOrderApp/customer/internal/application</text>
</g>
<g id="clust6" class="cluster">
<title>cluster_5</title>
<polygon fill="none" stroke="#000000" points="1000.0023,-161 1000.0023,-292 1498.4066,-292 1498.4066,-161 1000.0023,-161"/>
<text text-anchor="middle" x="1249.2045" y="-275.4" font-family="Times,serif" font-size="14.00" fill="#000000">github.com/MikhailGulkin/simpleGoOrderApp/customer/internal/infrastructure/minio</text>
</g>
<g id="clust5" class="cluster">
<title>cluster_4</title>
<polygon fill="none" stroke="#000000" points="1009.1256,-300 1009.1256,-431 1489.2833,-431 1489.2833,-300 1009.1256,-300"/>
<text text-anchor="middle" x="1249.2045" y="-414.4" font-family="Times,serif" font-size="14.00" fill="#000000">github.com/MikhailGulkin/simpleGoOrderApp/customer/internal/infrastructure/db</text>
</g>
<g id="clust4" class="cluster">
<title>cluster_3</title>
<polygon fill="none" stroke="#000000" points="1009.8143,-439 1009.8143,-570 1489.5946,-570 1489.5946,-439 1009.8143,-439"/>
<text text-anchor="middle" x="1249.7045" y="-553.4" font-family="Times,serif" font-size="14.00" fill="#000000">github.com/MikhailGulkin/simpleGoOrderApp/customer/internal/infrastructure/db</text>
</g>
<g id="clust3" class="cluster">
<title>cluster_2</title>
<polygon fill="none" stroke="#000000" points="499.8636,-439 499.8636,-570 980.1256,-570 980.1256,-439 499.8636,-439"/>
<text text-anchor="middle" x="739.9946" y="-553.4" font-family="Times,serif" font-size="14.00" fill="#000000">github.com/MikhailGulkin/simpleGoOrderApp/customer/internal/infrastructure/db</text>
</g>
<g id="clust2" class="cluster">
<title>cluster_1</title>
<polygon fill="none" stroke="#000000" points="0,-439 0,-570 479.8636,-570 479.8636,-439 0,-439"/>
<text text-anchor="middle" x="239.9318" y="-553.4" font-family="Times,serif" font-size="14.00" fill="#000000">github.com/MikhailGulkin/simpleGoOrderApp/customer/internal/infrastructure/db</text>
</g>
<g id="clust1" class="cluster">
<title>cluster_0</title>
<polygon fill="none" stroke="#000000" points="1009.3877,-578 1009.3877,-709 1489.0212,-709 1489.0212,-578 1009.3877,-578"/>
<text text-anchor="middle" x="1249.2045" y="-692.4" font-family="Times,serif" font-size="14.00" fill="#000000">github.com/MikhailGulkin/simpleGoOrderApp/customer/internal/infrastructure/db</text>
</g>
<!-- constructor_0 -->
<g id="node1" class="node">
<title>constructor_0</title>
<text text-anchor="middle" x="1249.7045" y="-653.8" font-family="Times,serif" font-size="14.00" fill="#000000">NewOutbox</text>
</g>
<!-- db.Connection -->
<g id="node3" class="node">
<title>db.Connection</title>
<ellipse fill="none" stroke="#000000" cx="740.4946" cy="-519" rx="67.7623" ry="18"/>
<text text-anchor="middle" x="740.4946" y="-514.8" font-family="Times,serif" font-size="14.00" fill="#000000">db.Connection</text>
</g>
<!-- constructor_0&#45;&gt;db.Connection -->
<g id="edge1" class="edge">
<title>constructor_0&#45;&gt;db.Connection</title>
<path fill="none" stroke="#000000" d="M1009.3917,-633.3791C1006.2368,-632.6103 1003.1056,-631.8175 1000.0023,-631 918.2008,-609.4514 828.8918,-566.1364 779.2803,-540.1414"/>
<polygon fill="#000000" stroke="#000000" points="780.6723,-536.9184 770.1954,-535.3416 777.4023,-543.1077 780.6723,-536.9184"/>
</g>
<!-- persistence.Outbox -->
<g id="node2" class="node">
<title>persistence.Outbox</title>
<ellipse fill="none" stroke="#000000" cx="1249.7045" cy="-604" rx="85.1339" ry="18"/>
<text text-anchor="middle" x="1249.7045" y="-599.8" font-family="Times,serif" font-size="14.00" fill="#000000">persistence.Outbox</text>
</g>
<!-- constructor_1 -->
<g id="node4" class="node">
<title>constructor_1</title>
<text text-anchor="middle" x="239.9318" y="-514.8" font-family="Times,serif" font-size="14.00" fill="#000000">NewConfig</text>
</g>
<!-- db.Config -->
<g id="node5" class="node">
<title>db.Config</title>
<ellipse fill="none" stroke="#000000" cx="239.9318" cy="-465" rx="49.8637" ry="18"/>
<text text-anchor="middle" x="239.9318" y="-460.8" font-family="Times,serif" font-size="14.00" fill="#000000">db.Config</text>
</g>
<!-- constructor_2 -->
<g id="node6" class="node">
<title>constructor_2</title>
<text text-anchor="middle" x="740.4946" y="-460.8" font-family="Times,serif" font-size="14.00" fill="#000000">NewConnection</text>
</g>
<!-- constructor_2&#45;&gt;db.Config -->
<g id="edge2" class="edge">
<title>constructor_2&#45;&gt;db.Config</title>
<path fill="none" stroke="#000000" d="M499.8652,-465C425.7765,-465 350.5582,-465 300.2314,-465"/>
<polygon fill="#000000" stroke="#000000" points="300.1328,-461.5001 290.1328,-465 300.1328,-468.5001 300.1328,-461.5001"/>
</g>
<!-- constructor_3 -->
<g id="node7" class="node">
<title>constructor_3</title>
<text text-anchor="middle" x="1249.7045" y="-514.8" font-family="Times,serif" font-size="14.00" fill="#000000">NewEventStore</text>
</g>
<!-- constructor_3&#45;&gt;db.Connection -->
<g id="edge3" class="edge">
<title>constructor_3&#45;&gt;db.Connection</title>
<path fill="none" stroke="#000000" d="M1009.8178,-519C940.7377,-519 870.2078,-519 818.661,-519"/>
<polygon fill="#000000" stroke="#000000" points="818.4449,-515.5001 808.4449,-519 818.4448,-522.5001 818.4449,-515.5001"/>
</g>
<!-- aggregate.EventStore -->
<g id="node8" class="node">
<title>aggregate.EventStore</title>
<ellipse fill="none" stroke="#000000" cx="1249.7045" cy="-465" rx="93.7805" ry="18"/>
<text text-anchor="middle" x="1249.7045" y="-460.8" font-family="Times,serif" font-size="14.00" fill="#000000">aggregate.EventStore</text>
</g>
<!-- constructor_4 -->
<g id="node9" class="node">
<title>constructor_4</title>
<text text-anchor="middle" x="1249.7045" y="-375.8" font-family="Times,serif" font-size="14.00" fill="#000000">NewUoWManager</text>
</g>
<!-- constructor_4&#45;&gt;db.Connection -->
<g id="edge4" class="edge">
<title>constructor_4&#45;&gt;db.Connection</title>
<path fill="none" stroke="#000000" d="M1009.127,-427.4873C1005.9962,-429.8793 1002.9513,-432.3819 1000.0023,-435 979.9389,-452.8123 1001.0928,-475.2609 980.1256,-492 932.1988,-530.2624 860.6603,-533.5772 808.2237,-529.411"/>
<polygon fill="#000000" stroke="#000000" points="808.2785,-525.9018 798.0037,-528.4862 807.6476,-532.8733 808.2785,-525.9018"/>
</g>
<!-- persistence.UoWManager -->
<g id="node10" class="node">
<title>persistence.UoWManager</title>
<ellipse fill="none" stroke="#000000" cx="1249.7045" cy="-326" rx="111.6577" ry="18"/>
<text text-anchor="middle" x="1249.7045" y="-321.8" font-family="Times,serif" font-size="14.00" fill="#000000">persistence.UoWManager</text>
</g>
<!-- constructor_5 -->
<g id="node11" class="node">
<title>constructor_5</title>
<text text-anchor="middle" x="1249.7045" y="-236.8" font-family="Times,serif" font-size="14.00" fill="#000000">NewMinio</text>
</g>
<!-- persistence.Bucket -->
<g id="node12" class="node">
<title>persistence.Bucket</title>
<ellipse fill="none" stroke="#000000" cx="1249.7045" cy="-187" rx="83.9047" ry="18"/>
<text text-anchor="middle" x="1249.7045" y="-182.8" font-family="Times,serif" font-size="14.00" fill="#000000">persistence.Bucket</text>
</g>
<!-- constructor_6 -->
<g id="node13" class="node">
<title>constructor_6</title>
<text text-anchor="middle" x="1756.7322" y="-391.8" font-family="Times,serif" font-size="14.00" fill="#000000">NewCustomerServices</text>
</g>
<!-- constructor_6&#45;&gt;persistence.Outbox -->
<g id="edge6" class="edge">
<title>constructor_6&#45;&gt;persistence.Outbox</title>
<path fill="none" stroke="#000000" d="M1700.3356,-446.9972C1650.876,-488.5743 1575.0713,-544.9949 1498.4066,-574 1449.9945,-592.3161 1392.8421,-600.0858 1345.5401,-603.1564"/>
<polygon fill="#000000" stroke="#000000" points="1345.0715,-599.6778 1335.2942,-603.7588 1345.4824,-606.6658 1345.0715,-599.6778"/>
</g>
<!-- constructor_6&#45;&gt;aggregate.EventStore -->
<g id="edge5" class="edge">
<title>constructor_6&#45;&gt;aggregate.EventStore</title>
<path fill="none" stroke="#000000" d="M1532.2862,-430.2979C1520.8334,-431.9187 1509.4891,-433.4953 1498.4066,-435 1446.3131,-442.0727 1387.9643,-449.1549 1340.8825,-454.6608"/>
<polygon fill="#000000" stroke="#000000" points="1340.235,-451.2125 1330.7075,-455.8467 1341.0455,-458.1654 1340.235,-451.2125"/>
</g>
<!-- constructor_6&#45;&gt;persistence.UoWManager -->
<g id="edge7" class="edge">
<title>constructor_6&#45;&gt;persistence.UoWManager</title>
<path fill="none" stroke="#000000" d="M1532.2839,-374.4965C1527.4661,-372.7838 1522.7226,-370.9541 1518.0724,-369 1507.6846,-364.6348 1508.8042,-357.3417 1498.4066,-353 1458.8827,-336.4962 1412.9026,-328.701 1371.3058,-325.354"/>
<polygon fill="#000000" stroke="#000000" points="1371.3391,-321.8473 1361.1121,-324.6145 1370.8326,-328.829 1371.3391,-321.8473"/>
</g>
<!-- constructor_6&#45;&gt;persistence.Bucket -->
<g id="edge8" class="edge">
<title>constructor_6&#45;&gt;persistence.Bucket</title>
<path fill="none" stroke="#000000" d="M1532.2843,-380.9544C1527.2825,-377.3694 1522.5284,-373.396 1518.0724,-369 1468.6386,-320.2315 1547.9503,-262.6569 1498.4066,-214 1452.5353,-168.9498 1376.5517,-166.9731 1320.6206,-173.3183"/>
<polygon fill="#000000" stroke="#000000" points="1319.9116,-169.8796 1310.4222,-174.5915 1320.7788,-176.8257 1319.9116,-169.8796"/>
</g>
<!-- *application.CustomerServices -->
<g id="node14" class="node">
<title>*application.CustomerServices</title>
<ellipse fill="none" stroke="#000000" cx="1756.7322" cy="-342" rx="131.3979" ry="18"/>
<text text-anchor="middle" x="1756.7322" y="-337.8" font-family="Times,serif" font-size="14.00" fill="#000000">*application.CustomerServices</text>
</g>
<!-- constructor_7 -->
<g id="node15" class="node">
<title>constructor_7</title>
<text text-anchor="middle" x="2757.5353" y="-403.8" font-family="Times,serif" font-size="14.00" fill="#000000">NewGrpcServer</text>
</g>
<!-- pb.CustomerServiceServer -->
<g id="node17" class="node">
<title>pb.CustomerServiceServer</title>
<ellipse fill="none" stroke="#000000" cx="2254.9941" cy="-408" rx="114.6262" ry="18"/>
<text text-anchor="middle" x="2254.9941" y="-403.8" font-family="Times,serif" font-size="14.00" fill="#000000">pb.CustomerServiceServer</text>
</g>
<!-- constructor_7&#45;&gt;pb.CustomerServiceServer -->
<g id="edge9" class="edge">
<title>constructor_7&#45;&gt;pb.CustomerServiceServer</title>
<path fill="none" stroke="#000000" d="M2514.9011,-408C2468.2746,-408 2421.2512,-408 2380.2629,-408"/>
<polygon fill="#000000" stroke="#000000" points="2380.0066,-404.5001 2370.0066,-408 2380.0065,-411.5001 2380.0066,-404.5001"/>
</g>
<!-- *grpc.Server -->
<g id="node16" class="node">
<title>*grpc.Server</title>
<ellipse fill="none" stroke="#000000" cx="2757.5353" cy="-354" rx="60.7753" ry="18"/>
<text text-anchor="middle" x="2757.5353" y="-349.8" font-family="Times,serif" font-size="14.00" fill="#000000">*grpc.Server</text>
</g>
<!-- constructor_8 -->
<g id="node18" class="node">
<title>constructor_8</title>
<text text-anchor="middle" x="2254.9941" y="-349.8" font-family="Times,serif" font-size="14.00" fill="#000000">NewCustomerGrpcService</text>
</g>
<!-- constructor_8&#45;&gt;*application.CustomerServices -->
<g id="edge10" class="edge">
<title>constructor_8&#45;&gt;*application.CustomerServices</title>
<path fill="none" stroke="#000000" d="M2013.1826,-348.1763C1973.1513,-347.2122 1932.8678,-346.242 1896.4711,-345.3654"/>
<polygon fill="#000000" stroke="#000000" points="1896.4178,-341.8632 1886.3364,-345.1213 1896.2491,-348.8612 1896.4178,-341.8632"/>
</g>
<!-- constructor_9 -->
<g id="node19" class="node">
<title>constructor_9</title>
<text text-anchor="middle" x="1756.7322" y="-228.8" font-family="Times,serif" font-size="14.00" fill="#000000">NewEngine</text>
</g>
<!-- api.Engine -->
<g id="node20" class="node">
<title>api.Engine</title>
<ellipse fill="none" stroke="#000000" cx="1756.7322" cy="-179" rx="52.7099" ry="18"/>
<text text-anchor="middle" x="1756.7322" y="-174.8" font-family="Times,serif" font-size="14.00" fill="#000000">api.Engine</text>
</g>
<!-- constructor_10 -->
<g id="node21" class="node">
<title>constructor_10</title>
<text text-anchor="middle" x="2254.9941" y="-264.8" font-family="Times,serif" font-size="14.00" fill="#000000">NewCustomerHandler</text>
</g>
<!-- constructor_10&#45;&gt;*application.CustomerServices -->
<g id="edge11" class="edge">
<title>constructor_10&#45;&gt;*application.CustomerServices</title>
<path fill="none" stroke="#000000" d="M2017.0222,-303.8651C1960.4694,-312.1506 1903.1483,-320.5487 1856.7467,-327.3469"/>
<polygon fill="#000000" stroke="#000000" points="1856.0295,-323.9146 1846.6425,-328.8273 1857.0442,-330.8406 1856.0295,-323.9146"/>
</g>
<!-- api.Handler -->
<g id="node22" class="node">
<title>api.Handler</title>
<ellipse fill="none" stroke="#000000" cx="2254.9941" cy="-215" rx="56.2" ry="18"/>
<text text-anchor="middle" x="2254.9941" y="-210.8" font-family="Times,serif" font-size="14.00" fill="#000000">api.Handler</text>
</g>
<!-- constructor_11 -->
<g id="node23" class="node">
<title>constructor_11</title>
<text text-anchor="middle" x="1756.7322" y="-89.8" font-family="Times,serif" font-size="14.00" fill="#000000">NewMiddlewares</text>
</g>
<!-- api.Middlewares -->
<g id="node24" class="node">
<title>api.Middlewares</title>
<ellipse fill="none" stroke="#000000" cx="1756.7322" cy="-40" rx="75.82" ry="18"/>
<text text-anchor="middle" x="1756.7322" y="-35.8" font-family="Times,serif" font-size="14.00" fill="#000000">api.Middlewares</text>
</g>
<!-- constructor_12 -->
<g id="node25" class="node">
<title>constructor_12</title>
<text text-anchor="middle" x="2254.9941" y="-125.8" font-family="Times,serif" font-size="14.00" fill="#000000">NewFiberGroup</text>
</g>
<!-- constructor_12&#45;&gt;api.Engine -->
<g id="edge12" class="edge">
<title>constructor_12&#45;&gt;api.Engine</title>
<path fill="none" stroke="#000000" d="M2016.6931,-153.435C1942.8584,-160.696 1867.7528,-168.082 1817.383,-173.0355"/>
<polygon fill="#000000" stroke="#000000" points="1816.9328,-169.5628 1807.3234,-174.0248 1817.618,-176.5292 1816.9328,-169.5628"/>
</g>
<!-- constructor_12&#45;&gt;api.Middlewares -->
<g id="edge13" class="edge">
<title>constructor_12&#45;&gt;api.Middlewares</title>
<path fill="none" stroke="#000000" d="M2016.6932,-105.3355C2015.5121,-104.5729 2014.3413,-103.7945 2013.1812,-103 1998.2903,-92.8021 2009.2731,-77.2122 1994.392,-67 1947.8655,-35.0707 1883.7691,-29.4308 1833.8649,-31.1673"/>
<polygon fill="#000000" stroke="#000000" points="1833.5945,-27.6758 1823.7632,-31.625 1833.9114,-34.6687 1833.5945,-27.6758"/>
</g>
<!-- api.FiberGroup -->
<g id="node26" class="node">
<title>api.FiberGroup</title>
<ellipse fill="none" stroke="#000000" cx="2254.9941" cy="-76" rx="70.1068" ry="18"/>
<text text-anchor="middle" x="2254.9941" y="-71.8" font-family="Times,serif" font-size="14.00" fill="#000000">api.FiberGroup</text>
</g>
<!-- constructor_13 -->
<g id="node27" class="node">
<title>constructor_13</title>
<text text-anchor="middle" x="2757.5353" y="-83.8" font-family="Times,serif" font-size="14.00" fill="#000000">NewCustomerRouter</text>
</g>
<!-- constructor_13&#45;&gt;api.Handler -->
<g id="edge15" class="edge">
<title>constructor_13&#45;&gt;api.Handler</title>
<path fill="none" stroke="#000000" d="M2638.3338,-138.9976C2594.5291,-155.9554 2544.0782,-173.442 2496.807,-185 2438.302,-199.3048 2370.0795,-206.9774 2321.0436,-210.9703"/>
<polygon fill="#000000" stroke="#000000" points="2320.5771,-207.4961 2310.8815,-211.7676 2321.1246,-214.4746 2320.5771,-207.4961"/>
</g>
<!-- constructor_13&#45;&gt;api.FiberGroup -->
<g id="edge14" class="edge">
<title>constructor_13&#45;&gt;api.FiberGroup</title>
<path fill="none" stroke="#000000" d="M2519.0557,-82.3054C2452.7817,-80.7229 2385.3182,-79.112 2335.1707,-77.9145"/>
<polygon fill="#000000" stroke="#000000" points="2335.0811,-74.4115 2325.0004,-77.6717 2334.914,-81.4095 2335.0811,-74.4115"/>
</g>
<!-- api.Route -->
<g id="node28" class="node">
<title>api.Route</title>
<ellipse fill="none" stroke="#000000" cx="2757.5353" cy="-34" rx="48.135" ry="18"/>
<text text-anchor="middle" x="2757.5353" y="-29.8" font-family="Times,serif" font-size="14.00" fill="#000000">api.Route</text>
</g>
<!-- constructor_14 -->
<g id="node29" class="node">
<title>constructor_14</title>
<text text-anchor="middle" x="2757.5353" y="-542.8" font-family="Times,serif" font-size="14.00" fill="#000000">New.func1</text>
</g>
<!-- fx.Lifecycle -->
<g id="node30" class="node">
<title>fx.Lifecycle</title>
<ellipse fill="none" stroke="#000000" cx="2757.5353" cy="-493" rx="57.9019" ry="18"/>
<text text-anchor="middle" x="2757.5353" y="-488.8" font-family="Times,serif" font-size="14.00" fill="#000000">fx.Lifecycle</text>
</g>
<!-- constructor_15 -->
<g id="node31" class="node">
<title>constructor_15</title>
<text text-anchor="middle" x="2757.5353" y="-681.8" font-family="Times,serif" font-size="14.00" fill="#000000">(*App).shutdowner&#45;fm</text>
</g>
<!-- fx.Shutdowner -->
<g id="node32" class="node">
<title>fx.Shutdowner</title>
<ellipse fill="none" stroke="#000000" cx="2757.5353" cy="-632" rx="68.3228" ry="18"/>
<text text-anchor="middle" x="2757.5353" y="-627.8" font-family="Times,serif" font-size="14.00" fill="#000000">fx.Shutdowner</text>
</g>
<!-- constructor_16 -->
<g id="node33" class="node">
<title>constructor_16</title>
<text text-anchor="middle" x="2757.5353" y="-820.8" font-family="Times,serif" font-size="14.00" fill="#000000">(*App).dotGraph&#45;fm</text>
</g>
<!-- fx.DotGraph -->
<g id="node34" class="node">
<title>fx.DotGraph</title>
<ellipse fill="none" stroke="#000000" cx="2757.5353" cy="-771" rx="60.2148" ry="18"/>
<text text-anchor="middle" x="2757.5353" y="-766.8" font-family="Times,serif" font-size="14.00" fill="#000000">fx.DotGraph</text>
</g>
</g>
</svg>
