<?xml version="1.0" encoding="UTF-8" standalone="no"?>
<!DOCTYPE svg PUBLIC "-//W3C//DTD SVG 1.1//EN"
 "http://www.w3.org/Graphics/SVG/1.1/DTD/svg11.dtd">
<!-- Generated by graphviz version 2.40.1 (20161225.0304)
 -->
<!-- Title: %3 Pages: 1 -->
<svg width="2748pt" height="892pt"
 viewBox="0.00 0.00 2748.17 892.00" xmlns="http://www.w3.org/2000/svg" xmlns:xlink="http://www.w3.org/1999/xlink">
<g id="graph0" class="graph" transform="scale(1 1) rotate(0) translate(4 888)">
<title>%3</title>
<polygon fill="#ffffff" stroke="transparent" points="-4,4 -4,-888 2744.1728,-888 2744.1728,4 -4,4"/>
<g id="clust17" class="cluster">
<title>cluster_16</title>
<polygon fill="none" stroke="#000000" points="2424.0293,-745 2424.0293,-876 2573.0413,-876 2573.0413,-745 2424.0293,-745"/>
<text text-anchor="middle" x="2498.5353" y="-859.4" font-family="Times,serif" font-size="14.00" fill="#000000">go.uber.org/fx</text>
</g>
<g id="clust16" class="cluster">
<title>cluster_15</title>
<polygon fill="none" stroke="#000000" points="2417.807,-606 2417.807,-737 2579.2636,-737 2579.2636,-606 2417.807,-606"/>
<text text-anchor="middle" x="2498.5353" y="-720.4" font-family="Times,serif" font-size="14.00" fill="#000000">go.uber.org/fx</text>
</g>
<g id="clust15" class="cluster">
<title>cluster_14</title>
<polygon fill="none" stroke="#000000" points="2432.5844,-467 2432.5844,-598 2564.4862,-598 2564.4862,-467 2432.5844,-467"/>
<text text-anchor="middle" x="2498.5353" y="-581.4" font-family="Times,serif" font-size="14.00" fill="#000000">go.uber.org/fx</text>
</g>
<g id="clust14" class="cluster">
<title>cluster_13</title>
<polygon fill="none" stroke="#000000" points="2260.0514,-8 2260.0514,-139 2736.0192,-139 2736.0192,-8 2260.0514,-8"/>
<text text-anchor="middle" x="2498.0353" y="-122.4" font-family="Times,serif" font-size="14.00" fill="#000000">github.com/MikhailGulkin/simpleGoOrderApp/customer/internal/presentation/api</text>
</g>
<g id="clust13" class="cluster">
<title>cluster_12</title>
<polygon fill="none" stroke="#000000" points="1757.691,-50 1757.691,-181 2234.2972,-181 2234.2972,-50 1757.691,-50"/>
<text text-anchor="middle" x="1995.9941" y="-164.4" font-family="Times,serif" font-size="14.00" fill="#000000">github.com/MikhailGulkin/simpleGoOrderApp/customer/internal/presentation/api</text>
</g>
<g id="clust12" class="cluster">
<title>cluster_11</title>
<polygon fill="none" stroke="#000000" points="1259.0724,-14 1259.0724,-145 1735.392,-145 1735.392,-14 1259.0724,-14"/>
<text text-anchor="middle" x="1497.2322" y="-128.4" font-family="Times,serif" font-size="14.00" fill="#000000">github.com/MikhailGulkin/simpleGoOrderApp/customer/internal/presentation/api</text>
</g>
<g id="clust11" class="cluster">
<title>cluster_10</title>
<polygon fill="none" stroke="#000000" points="1758.0179,-189 1758.0179,-320 2233.9703,-320 2233.9703,-189 1758.0179,-189"/>
<text text-anchor="middle" x="1995.9941" y="-303.4" font-family="Times,serif" font-size="14.00" fill="#000000">github.com/MikhailGulkin/simpleGoOrderApp/customer/internal/presentation/api</text>
</g>
<g id="clust10" class="cluster">
<title>cluster_9</title>
<polygon fill="none" stroke="#000000" points="1259.1274,-153 1259.1274,-284 1735.3371,-284 1735.3371,-153 1259.1274,-153"/>
<text text-anchor="middle" x="1497.2322" y="-267.4" font-family="Times,serif" font-size="14.00" fill="#000000">github.com/MikhailGulkin/simpleGoOrderApp/customer/internal/presentation/api</text>
</g>
<g id="clust9" class="cluster">
<title>cluster_8</title>
<polygon fill="none" stroke="#000000" points="1754.1812,-328 1754.1812,-459 2237.807,-459 2237.807,-328 1754.1812,-328"/>
<text text-anchor="middle" x="1995.9941" y="-442.4" font-family="Times,serif" font-size="14.00" fill="#000000">github.com/MikhailGulkin/simpleGoOrderApp/customer/internal/presentation/grpc</text>
</g>
<g id="clust8" class="cluster">
<title>cluster_7</title>
<polygon fill="none" stroke="#000000" points="2255.8979,-328 2255.8979,-459 2740.1728,-459 2740.1728,-328 2255.8979,-328"/>
<text text-anchor="middle" x="2498.0353" y="-442.4" font-family="Times,serif" font-size="14.00" fill="#000000">github.com/MikhailGulkin/simpleGoOrderApp/customer/internal/presentation/grpc</text>
</g>
<g id="clust7" class="cluster">
<title>cluster_6</title>
<polygon fill="none" stroke="#000000" points="1273.2833,-316 1273.2833,-447 1722.1812,-447 1722.1812,-316 1273.2833,-316"/>
<text text-anchor="middle" x="1497.7322" y="-430.4" font-family="Times,serif" font-size="14.00" fill="#000000">github.com/MikhailGulkin/simpleGoOrderApp/customer/internal/application</text>
</g>
<g id="clust6" class="cluster">
<title>cluster_5</title>
<polygon fill="none" stroke="#000000" points="499.8636,-439 499.8636,-570 980.1256,-570 980.1256,-439 499.8636,-439"/>
<text text-anchor="middle" x="739.9946" y="-553.4" font-family="Times,serif" font-size="14.00" fill="#000000">github.com/MikhailGulkin/simpleGoOrderApp/customer/internal/infrastructure/db</text>
</g>
<g id="clust5" class="cluster">
<title>cluster_4</title>
<polygon fill="none" stroke="#000000" points="0,-439 0,-570 479.8636,-570 479.8636,-439 0,-439"/>
<text text-anchor="middle" x="239.9318" y="-553.4" font-family="Times,serif" font-size="14.00" fill="#000000">github.com/MikhailGulkin/simpleGoOrderApp/customer/internal/infrastructure/db</text>
</g>
<g id="clust4" class="cluster">
<title>cluster_3</title>
<polygon fill="none" stroke="#000000" points="1000.1256,-161 1000.1256,-292 1239.2833,-292 1239.2833,-161 1000.1256,-161"/>
<text text-anchor="middle" x="1119.7045" y="-275.4" font-family="Times,serif" font-size="14.00" fill="#000000">reflect</text>
</g>
<g id="clust3" class="cluster">
<title>cluster_2</title>
<polygon fill="none" stroke="#000000" points="1028.0023,-300 1028.0023,-431 1211.4066,-431 1211.4066,-300 1028.0023,-300"/>
<text text-anchor="middle" x="1119.7045" y="-414.4" font-family="Times,serif" font-size="14.00" fill="#000000">reflect</text>
</g>
<g id="clust2" class="cluster">
<title>cluster_1</title>
<polygon fill="none" stroke="#000000" points="1017.8143,-439 1017.8143,-570 1221.5946,-570 1221.5946,-439 1017.8143,-439"/>
<text text-anchor="middle" x="1119.7045" y="-553.4" font-family="Times,serif" font-size="14.00" fill="#000000">reflect</text>
</g>
<g id="clust1" class="cluster">
<title>cluster_0</title>
<polygon fill="none" stroke="#000000" points="1026.3877,-578 1026.3877,-709 1213.0212,-709 1213.0212,-578 1026.3877,-578"/>
<text text-anchor="middle" x="1119.7045" y="-692.4" font-family="Times,serif" font-size="14.00" fill="#000000">reflect</text>
</g>
<!-- constructor_0 -->
<g id="node1" class="node">
<title>constructor_0</title>
<text text-anchor="middle" x="1119.7045" y="-653.8" font-family="Times,serif" font-size="14.00" fill="#000000">makeFuncStub</text>
</g>
<!-- db.Connection -->
<g id="node3" class="node">
<title>db.Connection</title>
<ellipse fill="none" stroke="#000000" cx="740.4946" cy="-519" rx="67.7623" ry="18"/>
<text text-anchor="middle" x="740.4946" y="-514.8" font-family="Times,serif" font-size="14.00" fill="#000000">db.Connection</text>
</g>
<!-- constructor_0&#45;&gt;db.Connection -->
<g id="edge1" class="edge">
<title>constructor_0&#45;&gt;db.Connection</title>
<path fill="none" stroke="#000000" d="M1026.3906,-638.7006C1017.4532,-636.3226 1008.5771,-633.7508 1000.1256,-631 920.5318,-605.0938 831.7853,-564.0108 781.389,-539.461"/>
<polygon fill="#000000" stroke="#000000" points="782.6558,-536.1843 772.1356,-534.9289 779.5768,-542.4708 782.6558,-536.1843"/>
</g>
<!-- persistence.Outbox -->
<g id="node2" class="node">
<title>persistence.Outbox</title>
<ellipse fill="none" stroke="#000000" cx="1119.7045" cy="-604" rx="85.1339" ry="18"/>
<text text-anchor="middle" x="1119.7045" y="-599.8" font-family="Times,serif" font-size="14.00" fill="#000000">persistence.Outbox</text>
</g>
<!-- constructor_1 -->
<g id="node4" class="node">
<title>constructor_1</title>
<text text-anchor="middle" x="1119.7045" y="-514.8" font-family="Times,serif" font-size="14.00" fill="#000000">makeFuncStub</text>
</g>
<!-- constructor_1&#45;&gt;db.Connection -->
<g id="edge2" class="edge">
<title>constructor_1&#45;&gt;db.Connection</title>
<path fill="none" stroke="#000000" d="M1017.8164,-519C955.2604,-519 876.3643,-519 818.7326,-519"/>
<polygon fill="#000000" stroke="#000000" points="818.3735,-515.5001 808.3735,-519 818.3734,-522.5001 818.3735,-515.5001"/>
</g>
<!-- aggregate.EventStore -->
<g id="node5" class="node">
<title>aggregate.EventStore</title>
<ellipse fill="none" stroke="#000000" cx="1119.7045" cy="-465" rx="93.7805" ry="18"/>
<text text-anchor="middle" x="1119.7045" y="-460.8" font-family="Times,serif" font-size="14.00" fill="#000000">aggregate.EventStore</text>
</g>
<!-- constructor_2 -->
<g id="node6" class="node">
<title>constructor_2</title>
<text text-anchor="middle" x="1119.7045" y="-375.8" font-family="Times,serif" font-size="14.00" fill="#000000">makeFuncStub</text>
</g>
<!-- persistence.Bucket -->
<g id="node7" class="node">
<title>persistence.Bucket</title>
<ellipse fill="none" stroke="#000000" cx="1119.7045" cy="-326" rx="83.9047" ry="18"/>
<text text-anchor="middle" x="1119.7045" y="-321.8" font-family="Times,serif" font-size="14.00" fill="#000000">persistence.Bucket</text>
</g>
<!-- constructor_3 -->
<g id="node8" class="node">
<title>constructor_3</title>
<text text-anchor="middle" x="1119.7045" y="-236.8" font-family="Times,serif" font-size="14.00" fill="#000000">makeFuncStub</text>
</g>
<!-- constructor_3&#45;&gt;db.Connection -->
<g id="edge3" class="edge">
<title>constructor_3&#45;&gt;db.Connection</title>
<path fill="none" stroke="#000000" d="M1003.1834,-291.996C1002.1237,-293.298 1001.1034,-294.6324 1000.1256,-296 974.6622,-331.6153 1010.9209,-460.8794 980.1256,-492 935.1014,-537.5 858.3804,-538.2814 803.8849,-531.5303"/>
<polygon fill="#000000" stroke="#000000" points="804.0194,-528.0166 793.6398,-530.1411 803.0788,-534.9531 804.0194,-528.0166"/>
</g>
<!-- persistence.UoWManager -->
<g id="node9" class="node">
<title>persistence.UoWManager</title>
<ellipse fill="none" stroke="#000000" cx="1119.7045" cy="-187" rx="111.6577" ry="18"/>
<text text-anchor="middle" x="1119.7045" y="-182.8" font-family="Times,serif" font-size="14.00" fill="#000000">persistence.UoWManager</text>
</g>
<!-- constructor_4 -->
<g id="node10" class="node">
<title>constructor_4</title>
<text text-anchor="middle" x="239.9318" y="-514.8" font-family="Times,serif" font-size="14.00" fill="#000000">NewConfig</text>
</g>
<!-- db.Config -->
<g id="node11" class="node">
<title>db.Config</title>
<ellipse fill="none" stroke="#000000" cx="239.9318" cy="-465" rx="49.8637" ry="18"/>
<text text-anchor="middle" x="239.9318" y="-460.8" font-family="Times,serif" font-size="14.00" fill="#000000">db.Config</text>
</g>
<!-- constructor_5 -->
<g id="node12" class="node">
<title>constructor_5</title>
<text text-anchor="middle" x="740.4946" y="-460.8" font-family="Times,serif" font-size="14.00" fill="#000000">NewConnection</text>
</g>
<!-- constructor_5&#45;&gt;db.Config -->
<g id="edge4" class="edge">
<title>constructor_5&#45;&gt;db.Config</title>
<path fill="none" stroke="#000000" d="M499.8652,-465C425.7765,-465 350.5582,-465 300.2314,-465"/>
<polygon fill="#000000" stroke="#000000" points="300.1328,-461.5001 290.1328,-465 300.1328,-468.5001 300.1328,-461.5001"/>
</g>
<!-- constructor_6 -->
<g id="node13" class="node">
<title>constructor_6</title>
<text text-anchor="middle" x="1497.7322" y="-391.8" font-family="Times,serif" font-size="14.00" fill="#000000">NewCustomerServices</text>
</g>
<!-- constructor_6&#45;&gt;persistence.Outbox -->
<g id="edge6" class="edge">
<title>constructor_6&#45;&gt;persistence.Outbox</title>
<path fill="none" stroke="#000000" d="M1437.2533,-446.9996C1387.1366,-486.8687 1312.5037,-540.9091 1239.2833,-574 1225.2037,-580.3631 1209.5563,-585.523 1194.3448,-589.6524"/>
<polygon fill="#000000" stroke="#000000" points="1193.2356,-586.3241 1184.4324,-592.2195 1194.9906,-593.1006 1193.2356,-586.3241"/>
</g>
<!-- constructor_6&#45;&gt;aggregate.EventStore -->
<g id="edge5" class="edge">
<title>constructor_6&#45;&gt;aggregate.EventStore</title>
<path fill="none" stroke="#000000" d="M1273.2855,-436.9674C1246.3758,-441.8791 1220.4599,-446.6095 1197.8262,-450.7407"/>
<polygon fill="#000000" stroke="#000000" points="1196.9752,-447.3381 1187.7662,-452.5769 1198.2322,-454.2244 1196.9752,-447.3381"/>
</g>
<!-- constructor_6&#45;&gt;persistence.Bucket -->
<g id="edge8" class="edge">
<title>constructor_6&#45;&gt;persistence.Bucket</title>
<path fill="none" stroke="#000000" d="M1273.287,-374.4753C1268.4685,-372.769 1263.7239,-370.9463 1259.0724,-369 1248.6386,-364.6343 1249.4627,-357.9297 1239.2833,-353 1226.7982,-346.9537 1212.919,-342.236 1199.1649,-338.5623"/>
<polygon fill="#000000" stroke="#000000" points="1199.7441,-335.0994 1189.1936,-336.0677 1198.0452,-341.8901 1199.7441,-335.0994"/>
</g>
<!-- constructor_6&#45;&gt;persistence.UoWManager -->
<g id="edge7" class="edge">
<title>constructor_6&#45;&gt;persistence.UoWManager</title>
<path fill="none" stroke="#000000" d="M1273.2844,-380.9466C1268.2829,-377.3637 1263.5288,-373.393 1259.0724,-369 1209.6146,-320.246 1286.0012,-265.3855 1239.2833,-214 1234.7734,-209.0396 1229.5629,-204.8911 1223.8925,-201.4298"/>
<polygon fill="#000000" stroke="#000000" points="1225.1144,-198.1169 1214.6378,-196.5384 1221.8434,-204.3056 1225.1144,-198.1169"/>
</g>
<!-- *application.CustomerServices -->
<g id="node14" class="node">
<title>*application.CustomerServices</title>
<ellipse fill="none" stroke="#000000" cx="1497.7322" cy="-342" rx="131.3979" ry="18"/>
<text text-anchor="middle" x="1497.7322" y="-337.8" font-family="Times,serif" font-size="14.00" fill="#000000">*application.CustomerServices</text>
</g>
<!-- constructor_7 -->
<g id="node15" class="node">
<title>constructor_7</title>
<text text-anchor="middle" x="2498.5353" y="-403.8" font-family="Times,serif" font-size="14.00" fill="#000000">NewGrpcServer</text>
</g>
<!-- pb.CustomerServiceServer -->
<g id="node17" class="node">
<title>pb.CustomerServiceServer</title>
<ellipse fill="none" stroke="#000000" cx="1995.9941" cy="-408" rx="114.6262" ry="18"/>
<text text-anchor="middle" x="1995.9941" y="-403.8" font-family="Times,serif" font-size="14.00" fill="#000000">pb.CustomerServiceServer</text>
</g>
<!-- constructor_7&#45;&gt;pb.CustomerServiceServer -->
<g id="edge9" class="edge">
<title>constructor_7&#45;&gt;pb.CustomerServiceServer</title>
<path fill="none" stroke="#000000" d="M2255.9011,-408C2209.2746,-408 2162.2512,-408 2121.2629,-408"/>
<polygon fill="#000000" stroke="#000000" points="2121.0066,-404.5001 2111.0066,-408 2121.0065,-411.5001 2121.0066,-404.5001"/>
</g>
<!-- *grpc.Server -->
<g id="node16" class="node">
<title>*grpc.Server</title>
<ellipse fill="none" stroke="#000000" cx="2498.5353" cy="-354" rx="60.7753" ry="18"/>
<text text-anchor="middle" x="2498.5353" y="-349.8" font-family="Times,serif" font-size="14.00" fill="#000000">*grpc.Server</text>
</g>
<!-- constructor_8 -->
<g id="node18" class="node">
<title>constructor_8</title>
<text text-anchor="middle" x="1995.9941" y="-349.8" font-family="Times,serif" font-size="14.00" fill="#000000">NewCustomerGrpcService</text>
</g>
<!-- constructor_8&#45;&gt;*application.CustomerServices -->
<g id="edge10" class="edge">
<title>constructor_8&#45;&gt;*application.CustomerServices</title>
<path fill="none" stroke="#000000" d="M1754.1826,-348.1763C1714.1513,-347.2122 1673.8678,-346.242 1637.4711,-345.3654"/>
<polygon fill="#000000" stroke="#000000" points="1637.4178,-341.8632 1627.3364,-345.1213 1637.2491,-348.8612 1637.4178,-341.8632"/>
</g>
<!-- constructor_9 -->
<g id="node19" class="node">
<title>constructor_9</title>
<text text-anchor="middle" x="1497.7322" y="-228.8" font-family="Times,serif" font-size="14.00" fill="#000000">NewEngine</text>
</g>
<!-- api.Engine -->
<g id="node20" class="node">
<title>api.Engine</title>
<ellipse fill="none" stroke="#000000" cx="1497.7322" cy="-179" rx="52.7099" ry="18"/>
<text text-anchor="middle" x="1497.7322" y="-174.8" font-family="Times,serif" font-size="14.00" fill="#000000">api.Engine</text>
</g>
<!-- constructor_10 -->
<g id="node21" class="node">
<title>constructor_10</title>
<text text-anchor="middle" x="1995.9941" y="-264.8" font-family="Times,serif" font-size="14.00" fill="#000000">NewCustomerHandler</text>
</g>
<!-- constructor_10&#45;&gt;*application.CustomerServices -->
<g id="edge11" class="edge">
<title>constructor_10&#45;&gt;*application.CustomerServices</title>
<path fill="none" stroke="#000000" d="M1758.0222,-303.8651C1701.4694,-312.1506 1644.1483,-320.5487 1597.7467,-327.3469"/>
<polygon fill="#000000" stroke="#000000" points="1597.0295,-323.9146 1587.6425,-328.8273 1598.0442,-330.8406 1597.0295,-323.9146"/>
</g>
<!-- api.Handler -->
<g id="node22" class="node">
<title>api.Handler</title>
<ellipse fill="none" stroke="#000000" cx="1995.9941" cy="-215" rx="56.2" ry="18"/>
<text text-anchor="middle" x="1995.9941" y="-210.8" font-family="Times,serif" font-size="14.00" fill="#000000">api.Handler</text>
</g>
<!-- constructor_11 -->
<g id="node23" class="node">
<title>constructor_11</title>
<text text-anchor="middle" x="1497.7322" y="-89.8" font-family="Times,serif" font-size="14.00" fill="#000000">NewMiddlewares</text>
</g>
<!-- api.Middlewares -->
<g id="node24" class="node">
<title>api.Middlewares</title>
<ellipse fill="none" stroke="#000000" cx="1497.7322" cy="-40" rx="75.82" ry="18"/>
<text text-anchor="middle" x="1497.7322" y="-35.8" font-family="Times,serif" font-size="14.00" fill="#000000">api.Middlewares</text>
</g>
<!-- constructor_12 -->
<g id="node25" class="node">
<title>constructor_12</title>
<text text-anchor="middle" x="1995.9941" y="-125.8" font-family="Times,serif" font-size="14.00" fill="#000000">NewFiberGroup</text>
</g>
<!-- constructor_12&#45;&gt;api.Engine -->
<g id="edge12" class="edge">
<title>constructor_12&#45;&gt;api.Engine</title>
<path fill="none" stroke="#000000" d="M1757.6931,-153.435C1683.8584,-160.696 1608.7528,-168.082 1558.383,-173.0355"/>
<polygon fill="#000000" stroke="#000000" points="1557.9328,-169.5628 1548.3234,-174.0248 1558.618,-176.5292 1557.9328,-169.5628"/>
</g>
<!-- constructor_12&#45;&gt;api.Middlewares -->
<g id="edge13" class="edge">
<title>constructor_12&#45;&gt;api.Middlewares</title>
<path fill="none" stroke="#000000" d="M1757.6932,-105.3355C1756.5121,-104.5729 1755.3413,-103.7945 1754.1812,-103 1739.2903,-92.8021 1750.2731,-77.2122 1735.392,-67 1688.8655,-35.0707 1624.7691,-29.4308 1574.8649,-31.1673"/>
<polygon fill="#000000" stroke="#000000" points="1574.5945,-27.6758 1564.7632,-31.625 1574.9114,-34.6687 1574.5945,-27.6758"/>
</g>
<!-- api.FiberGroup -->
<g id="node26" class="node">
<title>api.FiberGroup</title>
<ellipse fill="none" stroke="#000000" cx="1995.9941" cy="-76" rx="70.1068" ry="18"/>
<text text-anchor="middle" x="1995.9941" y="-71.8" font-family="Times,serif" font-size="14.00" fill="#000000">api.FiberGroup</text>
</g>
<!-- constructor_13 -->
<g id="node27" class="node">
<title>constructor_13</title>
<text text-anchor="middle" x="2498.5353" y="-83.8" font-family="Times,serif" font-size="14.00" fill="#000000">NewCustomerRouter</text>
</g>
<!-- constructor_13&#45;&gt;api.Handler -->
<g id="edge15" class="edge">
<title>constructor_13&#45;&gt;api.Handler</title>
<path fill="none" stroke="#000000" d="M2379.3338,-138.9976C2335.5291,-155.9554 2285.0782,-173.442 2237.807,-185 2179.302,-199.3048 2111.0795,-206.9774 2062.0436,-210.9703"/>
<polygon fill="#000000" stroke="#000000" points="2061.5771,-207.4961 2051.8815,-211.7676 2062.1246,-214.4746 2061.5771,-207.4961"/>
</g>
<!-- constructor_13&#45;&gt;api.FiberGroup -->
<g id="edge14" class="edge">
<title>constructor_13&#45;&gt;api.FiberGroup</title>
<path fill="none" stroke="#000000" d="M2260.0557,-82.3054C2193.7817,-80.7229 2126.3182,-79.112 2076.1707,-77.9145"/>
<polygon fill="#000000" stroke="#000000" points="2076.0811,-74.4115 2066.0004,-77.6717 2075.914,-81.4095 2076.0811,-74.4115"/>
</g>
<!-- api.Route -->
<g id="node28" class="node">
<title>api.Route</title>
<ellipse fill="none" stroke="#000000" cx="2498.5353" cy="-34" rx="48.135" ry="18"/>
<text text-anchor="middle" x="2498.5353" y="-29.8" font-family="Times,serif" font-size="14.00" fill="#000000">api.Route</text>
</g>
<!-- constructor_14 -->
<g id="node29" class="node">
<title>constructor_14</title>
<text text-anchor="middle" x="2498.5353" y="-542.8" font-family="Times,serif" font-size="14.00" fill="#000000">New.func1</text>
</g>
<!-- fx.Lifecycle -->
<g id="node30" class="node">
<title>fx.Lifecycle</title>
<ellipse fill="none" stroke="#000000" cx="2498.5353" cy="-493" rx="57.9019" ry="18"/>
<text text-anchor="middle" x="2498.5353" y="-488.8" font-family="Times,serif" font-size="14.00" fill="#000000">fx.Lifecycle</text>
</g>
<!-- constructor_15 -->
<g id="node31" class="node">
<title>constructor_15</title>
<text text-anchor="middle" x="2498.5353" y="-681.8" font-family="Times,serif" font-size="14.00" fill="#000000">(*App).shutdowner&#45;fm</text>
</g>
<!-- fx.Shutdowner -->
<g id="node32" class="node">
<title>fx.Shutdowner</title>
<ellipse fill="none" stroke="#000000" cx="2498.5353" cy="-632" rx="68.3228" ry="18"/>
<text text-anchor="middle" x="2498.5353" y="-627.8" font-family="Times,serif" font-size="14.00" fill="#000000">fx.Shutdowner</text>
</g>
<!-- constructor_16 -->
<g id="node33" class="node">
<title>constructor_16</title>
<text text-anchor="middle" x="2498.5353" y="-820.8" font-family="Times,serif" font-size="14.00" fill="#000000">(*App).dotGraph&#45;fm</text>
</g>
<!-- fx.DotGraph -->
<g id="node34" class="node">
<title>fx.DotGraph</title>
<ellipse fill="none" stroke="#000000" cx="2498.5353" cy="-771" rx="60.2148" ry="18"/>
<text text-anchor="middle" x="2498.5353" y="-766.8" font-family="Times,serif" font-size="14.00" fill="#000000">fx.DotGraph</text>
</g>
</g>
</svg>
