<?xml version="1.0" encoding="UTF-8" standalone="no"?>
<!DOCTYPE svg PUBLIC "-//W3C//DTD SVG 1.1//EN"
 "http://www.w3.org/Graphics/SVG/1.1/DTD/svg11.dtd">
<!-- Generated by graphviz version 2.40.1 (20161225.0304)
 -->
<!-- Title: %3 Pages: 1 -->
<svg width="2965pt" height="572pt"
 viewBox="0.00 0.00 2964.88 572.00" xmlns="http://www.w3.org/2000/svg" xmlns:xlink="http://www.w3.org/1999/xlink">
<g id="graph0" class="graph" transform="scale(1 1) rotate(0) translate(4 568)">
<title>%3</title>
<polygon fill="#ffffff" stroke="transparent" points="-4,4 -4,-568 2960.8812,-568 2960.8812,4 -4,4"/>
<g id="clust10" class="cluster">
<title>cluster_9</title>
<polygon fill="none" stroke="#000000" points="2640.4364,-425 2640.4364,-556 2789.4484,-556 2789.4484,-425 2640.4364,-425"/>
<text text-anchor="middle" x="2714.9424" y="-539.4" font-family="Times,serif" font-size="14.00" fill="#000000">go.uber.org/fx</text>
</g>
<g id="clust9" class="cluster">
<title>cluster_8</title>
<polygon fill="none" stroke="#000000" points="2634.2141,-286 2634.2141,-417 2795.6707,-417 2795.6707,-286 2634.2141,-286"/>
<text text-anchor="middle" x="2714.9424" y="-400.4" font-family="Times,serif" font-size="14.00" fill="#000000">go.uber.org/fx</text>
</g>
<g id="clust8" class="cluster">
<title>cluster_7</title>
<polygon fill="none" stroke="#000000" points="2648.9915,-147 2648.9915,-278 2780.8933,-278 2780.8933,-147 2648.9915,-147"/>
<text text-anchor="middle" x="2714.9424" y="-261.4" font-family="Times,serif" font-size="14.00" fill="#000000">go.uber.org/fx</text>
</g>
<g id="clust7" class="cluster">
<title>cluster_6</title>
<polygon fill="none" stroke="#000000" points="1969.1812,-8 1969.1812,-139 2453.0036,-139 2453.0036,-8 1969.1812,-8"/>
<text text-anchor="middle" x="2211.0924" y="-122.4" font-family="Times,serif" font-size="14.00" fill="#000000">github.com/MikhailGulkin/simpleGoOrderApp/customer/internal/presentation/grpc</text>
</g>
<g id="clust6" class="cluster">
<title>cluster_5</title>
<polygon fill="none" stroke="#000000" points="2473.0036,-8 2473.0036,-139 2956.8812,-139 2956.8812,-8 2473.0036,-8"/>
<text text-anchor="middle" x="2714.9424" y="-122.4" font-family="Times,serif" font-size="14.00" fill="#000000">github.com/MikhailGulkin/simpleGoOrderApp/customer/internal/presentation/grpc</text>
</g>
<g id="clust5" class="cluster">
<title>cluster_4</title>
<polygon fill="none" stroke="#000000" points="1500.2833,-8 1500.2833,-139 1949.1812,-139 1949.1812,-8 1500.2833,-8"/>
<text text-anchor="middle" x="1724.7322" y="-122.4" font-family="Times,serif" font-size="14.00" fill="#000000">github.com/MikhailGulkin/simpleGoOrderApp/customer/internal/application</text>
</g>
<g id="clust4" class="cluster">
<title>cluster_3</title>
<polygon fill="none" stroke="#000000" points="1000.1256,-14 1000.1256,-145 1480.2833,-145 1480.2833,-14 1000.1256,-14"/>
<text text-anchor="middle" x="1240.2045" y="-128.4" font-family="Times,serif" font-size="14.00" fill="#000000">github.com/MikhailGulkin/simpleGoOrderApp/customer/internal/infrastructure/db</text>
</g>
<g id="clust3" class="cluster">
<title>cluster_2</title>
<polygon fill="none" stroke="#000000" points="1000.4479,-153 1000.4479,-284 1480.961,-284 1480.961,-153 1000.4479,-153"/>
<text text-anchor="middle" x="1240.7045" y="-267.4" font-family="Times,serif" font-size="14.00" fill="#000000">github.com/MikhailGulkin/simpleGoOrderApp/customer/internal/infrastructure/db</text>
</g>
<g id="clust2" class="cluster">
<title>cluster_1</title>
<polygon fill="none" stroke="#000000" points="499.8636,-137 499.8636,-268 980.1256,-268 980.1256,-137 499.8636,-137"/>
<text text-anchor="middle" x="739.9946" y="-251.4" font-family="Times,serif" font-size="14.00" fill="#000000">github.com/MikhailGulkin/simpleGoOrderApp/customer/internal/infrastructure/db</text>
</g>
<g id="clust1" class="cluster">
<title>cluster_0</title>
<polygon fill="none" stroke="#000000" points="0,-191 0,-322 479.8636,-322 479.8636,-191 0,-191"/>
<text text-anchor="middle" x="239.9318" y="-305.4" font-family="Times,serif" font-size="14.00" fill="#000000">github.com/MikhailGulkin/simpleGoOrderApp/customer/internal/infrastructure/db</text>
</g>
<!-- constructor_0 -->
<g id="node1" class="node">
<title>constructor_0</title>
<text text-anchor="middle" x="239.9318" y="-266.8" font-family="Times,serif" font-size="14.00" fill="#000000">NewConfig</text>
</g>
<!-- db.Config -->
<g id="node2" class="node">
<title>db.Config</title>
<ellipse fill="none" stroke="#000000" cx="239.9318" cy="-217" rx="49.8637" ry="18"/>
<text text-anchor="middle" x="239.9318" y="-212.8" font-family="Times,serif" font-size="14.00" fill="#000000">db.Config</text>
</g>
<!-- constructor_1 -->
<g id="node3" class="node">
<title>constructor_1</title>
<text text-anchor="middle" x="740.4946" y="-212.8" font-family="Times,serif" font-size="14.00" fill="#000000">NewConnection</text>
</g>
<!-- constructor_1&#45;&gt;db.Config -->
<g id="edge1" class="edge">
<title>constructor_1&#45;&gt;db.Config</title>
<path fill="none" stroke="#000000" d="M499.8652,-217C425.7765,-217 350.5582,-217 300.2314,-217"/>
<polygon fill="#000000" stroke="#000000" points="300.1328,-213.5001 290.1328,-217 300.1328,-220.5001 300.1328,-213.5001"/>
</g>
<!-- db.Connection -->
<g id="node4" class="node">
<title>db.Connection</title>
<ellipse fill="none" stroke="#000000" cx="740.4946" cy="-163" rx="67.7623" ry="18"/>
<text text-anchor="middle" x="740.4946" y="-158.8" font-family="Times,serif" font-size="14.00" fill="#000000">db.Connection</text>
</g>
<!-- constructor_2 -->
<g id="node5" class="node">
<title>constructor_2</title>
<text text-anchor="middle" x="1240.7045" y="-228.8" font-family="Times,serif" font-size="14.00" fill="#000000">NewEventStore</text>
</g>
<!-- constructor_2&#45;&gt;db.Connection -->
<g id="edge2" class="edge">
<title>constructor_2&#45;&gt;db.Connection</title>
<path fill="none" stroke="#000000" d="M1000.4505,-206.1345C1000.3421,-206.0897 1000.2339,-206.0449 1000.1256,-206 989.6112,-201.638 990.6391,-194.3643 980.1256,-190 928.7749,-168.6834 866.2134,-162.2173 817.8919,-160.9304"/>
<polygon fill="#000000" stroke="#000000" points="817.8732,-157.4295 807.8059,-160.731 817.7347,-164.4281 817.8732,-157.4295"/>
</g>
<!-- persistence.EventStore -->
<g id="node6" class="node">
<title>persistence.EventStore</title>
<ellipse fill="none" stroke="#000000" cx="1240.7045" cy="-179" rx="99.0137" ry="18"/>
<text text-anchor="middle" x="1240.7045" y="-174.8" font-family="Times,serif" font-size="14.00" fill="#000000">persistence.EventStore</text>
</g>
<!-- constructor_3 -->
<g id="node7" class="node">
<title>constructor_3</title>
<text text-anchor="middle" x="1240.7045" y="-89.8" font-family="Times,serif" font-size="14.00" fill="#000000">NewUoWManager</text>
</g>
<!-- constructor_3&#45;&gt;db.Connection -->
<g id="edge3" class="edge">
<title>constructor_3&#45;&gt;db.Connection</title>
<path fill="none" stroke="#000000" d="M1000.1298,-127.1854C930.9623,-136.7265 860.8215,-146.4019 810.9086,-153.2869"/>
<polygon fill="#000000" stroke="#000000" points="810.1973,-149.8518 800.7694,-154.6856 811.1539,-156.7862 810.1973,-149.8518"/>
</g>
<!-- persistence.UoWManager -->
<g id="node8" class="node">
<title>persistence.UoWManager</title>
<ellipse fill="none" stroke="#000000" cx="1240.7045" cy="-40" rx="111.6577" ry="18"/>
<text text-anchor="middle" x="1240.7045" y="-35.8" font-family="Times,serif" font-size="14.00" fill="#000000">persistence.UoWManager</text>
</g>
<!-- constructor_4 -->
<g id="node9" class="node">
<title>constructor_4</title>
<text text-anchor="middle" x="1724.7322" y="-83.8" font-family="Times,serif" font-size="14.00" fill="#000000">NewCustomerServices</text>
</g>
<!-- constructor_4&#45;&gt;persistence.EventStore -->
<g id="edge4" class="edge">
<title>constructor_4&#45;&gt;persistence.EventStore</title>
<path fill="none" stroke="#000000" d="M1529.7751,-138.9985C1513.3164,-142.6296 1496.8841,-146.0249 1480.961,-149 1434.481,-157.6844 1382.46,-164.5292 1338.7419,-169.4742"/>
<polygon fill="#000000" stroke="#000000" points="1338.2341,-166.0091 1328.6833,-170.5952 1339.0094,-172.966 1338.2341,-166.0091"/>
</g>
<!-- constructor_4&#45;&gt;persistence.UoWManager -->
<g id="edge5" class="edge">
<title>constructor_4&#45;&gt;persistence.UoWManager</title>
<path fill="none" stroke="#000000" d="M1500.2854,-65.7421C1446.3819,-60.3966 1391.31,-54.9352 1345.8417,-50.4262"/>
<polygon fill="#000000" stroke="#000000" points="1346.1637,-46.9411 1335.8671,-49.4371 1345.4729,-53.9069 1346.1637,-46.9411"/>
</g>
<!-- *application.CustomerServices -->
<g id="node10" class="node">
<title>*application.CustomerServices</title>
<ellipse fill="none" stroke="#000000" cx="1724.7322" cy="-34" rx="131.3979" ry="18"/>
<text text-anchor="middle" x="1724.7322" y="-29.8" font-family="Times,serif" font-size="14.00" fill="#000000">*application.CustomerServices</text>
</g>
<!-- constructor_5 -->
<g id="node11" class="node">
<title>constructor_5</title>
<text text-anchor="middle" x="2714.9424" y="-83.8" font-family="Times,serif" font-size="14.00" fill="#000000">NewGrpcServer</text>
</g>
<!-- servicespb.CustomerServiceServer -->
<g id="node13" class="node">
<title>servicespb.CustomerServiceServer</title>
<ellipse fill="none" stroke="#000000" cx="2211.0924" cy="-88" rx="145.8224" ry="18"/>
<text text-anchor="middle" x="2211.0924" y="-83.8" font-family="Times,serif" font-size="14.00" fill="#000000">servicespb.CustomerServiceServer</text>
</g>
<!-- constructor_5&#45;&gt;servicespb.CustomerServiceServer -->
<g id="edge6" class="edge">
<title>constructor_5&#45;&gt;servicespb.CustomerServiceServer</title>
<path fill="none" stroke="#000000" d="M2473.0062,-88C2437.1373,-88 2400.998,-88 2367.5028,-88"/>
<polygon fill="#000000" stroke="#000000" points="2367.245,-84.5001 2357.2449,-88 2367.2449,-91.5001 2367.245,-84.5001"/>
</g>
<!-- *grpc.GrpcServer -->
<g id="node12" class="node">
<title>*grpc.GrpcServer</title>
<ellipse fill="none" stroke="#000000" cx="2714.9424" cy="-34" rx="79.8777" ry="18"/>
<text text-anchor="middle" x="2714.9424" y="-29.8" font-family="Times,serif" font-size="14.00" fill="#000000">*grpc.GrpcServer</text>
</g>
<!-- constructor_6 -->
<g id="node14" class="node">
<title>constructor_6</title>
<text text-anchor="middle" x="2211.0924" y="-29.8" font-family="Times,serif" font-size="14.00" fill="#000000">NewCustomerGrpcService</text>
</g>
<!-- constructor_6&#45;&gt;*application.CustomerServices -->
<g id="edge7" class="edge">
<title>constructor_6&#45;&gt;*application.CustomerServices</title>
<path fill="none" stroke="#000000" d="M1969.1846,-34C1934.0387,-34 1898.8573,-34 1866.5771,-34"/>
<polygon fill="#000000" stroke="#000000" points="1866.3405,-30.5001 1856.3405,-34 1866.3404,-37.5001 1866.3405,-30.5001"/>
</g>
<!-- constructor_7 -->
<g id="node15" class="node">
<title>constructor_7</title>
<text text-anchor="middle" x="2714.9424" y="-222.8" font-family="Times,serif" font-size="14.00" fill="#000000">New.func1</text>
</g>
<!-- fx.Lifecycle -->
<g id="node16" class="node">
<title>fx.Lifecycle</title>
<ellipse fill="none" stroke="#000000" cx="2714.9424" cy="-173" rx="57.9019" ry="18"/>
<text text-anchor="middle" x="2714.9424" y="-168.8" font-family="Times,serif" font-size="14.00" fill="#000000">fx.Lifecycle</text>
</g>
<!-- constructor_8 -->
<g id="node17" class="node">
<title>constructor_8</title>
<text text-anchor="middle" x="2714.9424" y="-361.8" font-family="Times,serif" font-size="14.00" fill="#000000">(*App).shutdowner&#45;fm</text>
</g>
<!-- fx.Shutdowner -->
<g id="node18" class="node">
<title>fx.Shutdowner</title>
<ellipse fill="none" stroke="#000000" cx="2714.9424" cy="-312" rx="68.3228" ry="18"/>
<text text-anchor="middle" x="2714.9424" y="-307.8" font-family="Times,serif" font-size="14.00" fill="#000000">fx.Shutdowner</text>
</g>
<!-- constructor_9 -->
<g id="node19" class="node">
<title>constructor_9</title>
<text text-anchor="middle" x="2714.9424" y="-500.8" font-family="Times,serif" font-size="14.00" fill="#000000">(*App).dotGraph&#45;fm</text>
</g>
<!-- fx.DotGraph -->
<g id="node20" class="node">
<title>fx.DotGraph</title>
<ellipse fill="none" stroke="#000000" cx="2714.9424" cy="-451" rx="60.2148" ry="18"/>
<text text-anchor="middle" x="2714.9424" y="-446.8" font-family="Times,serif" font-size="14.00" fill="#000000">fx.DotGraph</text>
</g>
</g>
</svg>
